<mxfile host="Electron" modified="2023-10-01T06:48:30.516Z" agent="Mozilla/5.0 (Windows NT 10.0; Win64; x64) AppleWebKit/537.36 (KHTML, like Gecko) draw.io/21.6.8 Chrome/114.0.5735.289 Electron/25.5.0 Safari/537.36" etag="Ut6SCk-XhxpIucB2nW0Z" version="21.6.8" type="device">
  <diagram name="StrÃ¡nka-1" id="joWKRU6rZ8LuYV_TO_0l">
    <mxGraphModel dx="915" dy="669" grid="1" gridSize="10" guides="1" tooltips="1" connect="1" arrows="1" fold="1" page="1" pageScale="1" pageWidth="827" pageHeight="1169" math="0" shadow="0">
      <root>
        <mxCell id="0" />
        <mxCell id="1" parent="0" />
        <mxCell id="w3RZAsPqUte_Nc-8vaKS-4" style="edgeStyle=orthogonalEdgeStyle;rounded=0;orthogonalLoop=1;jettySize=auto;html=1;exitX=0.5;exitY=1;exitDx=0;exitDy=0;endArrow=open;endFill=0;" parent="1" source="YtqyZc0E2LU7h071Y5bg-1" target="YtqyZc0E2LU7h071Y5bg-10" edge="1">
          <mxGeometry relative="1" as="geometry" />
        </mxCell>
        <mxCell id="w3RZAsPqUte_Nc-8vaKS-9" value="NO" style="edgeLabel;html=1;align=center;verticalAlign=middle;resizable=0;points=[];" parent="w3RZAsPqUte_Nc-8vaKS-4" vertex="1" connectable="0">
          <mxGeometry x="0.3039" y="-1" relative="1" as="geometry">
            <mxPoint x="-15" y="5" as="offset" />
          </mxGeometry>
        </mxCell>
        <mxCell id="w3RZAsPqUte_Nc-8vaKS-5" style="edgeStyle=orthogonalEdgeStyle;rounded=0;orthogonalLoop=1;jettySize=auto;html=1;exitX=1;exitY=0.5;exitDx=0;exitDy=0;entryX=0;entryY=0.5;entryDx=0;entryDy=0;endArrow=open;endFill=0;" parent="1" source="YtqyZc0E2LU7h071Y5bg-1" target="YtqyZc0E2LU7h071Y5bg-5" edge="1">
          <mxGeometry relative="1" as="geometry" />
        </mxCell>
        <mxCell id="w3RZAsPqUte_Nc-8vaKS-8" value="YES" style="edgeLabel;html=1;align=center;verticalAlign=middle;resizable=0;points=[];" parent="w3RZAsPqUte_Nc-8vaKS-5" vertex="1" connectable="0">
          <mxGeometry x="-0.2633" y="-1" relative="1" as="geometry">
            <mxPoint y="-11" as="offset" />
          </mxGeometry>
        </mxCell>
        <mxCell id="YtqyZc0E2LU7h071Y5bg-1" value="Should the &lt;br&gt;ELF file be treated &lt;br&gt;as a kernel?" style="rhombus;whiteSpace=wrap;html=1;fontFamily=Computer Modern;shadow=1;" parent="1" vertex="1">
          <mxGeometry x="303.5" y="65" width="125" height="90" as="geometry" />
        </mxCell>
        <mxCell id="w3RZAsPqUte_Nc-8vaKS-3" style="edgeStyle=orthogonalEdgeStyle;rounded=0;orthogonalLoop=1;jettySize=auto;html=1;exitX=1;exitY=0.5;exitDx=0;exitDy=0;entryX=0;entryY=0.5;entryDx=0;entryDy=0;endArrow=open;endFill=0;" parent="1" source="YtqyZc0E2LU7h071Y5bg-2" target="YtqyZc0E2LU7h071Y5bg-1" edge="1">
          <mxGeometry relative="1" as="geometry" />
        </mxCell>
        <mxCell id="YtqyZc0E2LU7h071Y5bg-2" value="Load and validate &lt;br&gt;the input ELF file" style="rounded=0;whiteSpace=wrap;html=1;fontFamily=Computer Modern;shadow=1;" parent="1" vertex="1">
          <mxGeometry x="140" y="90" width="135" height="40" as="geometry" />
        </mxCell>
        <mxCell id="w3RZAsPqUte_Nc-8vaKS-6" style="edgeStyle=orthogonalEdgeStyle;rounded=0;orthogonalLoop=1;jettySize=auto;html=1;exitX=0.5;exitY=1;exitDx=0;exitDy=0;entryX=1;entryY=0.5;entryDx=0;entryDy=0;endArrow=open;endFill=0;" parent="1" source="YtqyZc0E2LU7h071Y5bg-5" target="YtqyZc0E2LU7h071Y5bg-10" edge="1">
          <mxGeometry relative="1" as="geometry" />
        </mxCell>
        <mxCell id="YtqyZc0E2LU7h071Y5bg-5" value="Map all segments&lt;br&gt;&amp;nbsp;into RAM&amp;nbsp;" style="rounded=0;whiteSpace=wrap;html=1;fontFamily=Computer Modern;shadow=1;" parent="1" vertex="1">
          <mxGeometry x="470" y="90" width="110" height="41.25" as="geometry" />
        </mxCell>
        <mxCell id="YtqyZc0E2LU7h071Y5bg-9" style="edgeStyle=orthogonalEdgeStyle;rounded=0;orthogonalLoop=1;jettySize=auto;html=1;exitX=0.5;exitY=1;exitDx=0;exitDy=0;entryX=0.5;entryY=0;entryDx=0;entryDy=0;endArrow=open;endFill=0;" parent="1" source="YtqyZc0E2LU7h071Y5bg-8" target="YtqyZc0E2LU7h071Y5bg-2" edge="1">
          <mxGeometry relative="1" as="geometry" />
        </mxCell>
        <mxCell id="YtqyZc0E2LU7h071Y5bg-8" value="Start" style="ellipse;whiteSpace=wrap;html=1;fontFamily=Computer Modern;shadow=1;" parent="1" vertex="1">
          <mxGeometry x="170" y="30" width="75" height="40" as="geometry" />
        </mxCell>
        <mxCell id="w3RZAsPqUte_Nc-8vaKS-7" style="edgeStyle=orthogonalEdgeStyle;rounded=0;orthogonalLoop=1;jettySize=auto;html=1;exitX=0.5;exitY=1;exitDx=0;exitDy=0;entryX=0.5;entryY=0;entryDx=0;entryDy=0;endArrow=open;endFill=0;" parent="1" source="YtqyZc0E2LU7h071Y5bg-10" target="YtqyZc0E2LU7h071Y5bg-15" edge="1">
          <mxGeometry relative="1" as="geometry" />
        </mxCell>
        <mxCell id="YtqyZc0E2LU7h071Y5bg-10" value="Disassemble&lt;br&gt;&amp;nbsp;instructions stored in the .text section" style="rounded=0;whiteSpace=wrap;html=1;fontFamily=Computer Modern;shadow=1;" parent="1" vertex="1">
          <mxGeometry x="298.5" y="180" width="135" height="50" as="geometry" />
        </mxCell>
        <mxCell id="YtqyZc0E2LU7h071Y5bg-15" value="End" style="ellipse;whiteSpace=wrap;html=1;fontFamily=Computer Modern;shadow=1;" parent="1" vertex="1">
          <mxGeometry x="328.5" y="250" width="75" height="40" as="geometry" />
        </mxCell>
      </root>
    </mxGraphModel>
  </diagram>
</mxfile>
